# 3ds Max Wavefront OBJ Exporter v0.97b - (c)2007 guruware
# File Created: 02.04.2018 01:08:11

#
# object Object003
#

v  -2.3594 -1.9678 -1.7976
v  -2.3631 -1.9678 2.1385
v  -2.3445 1.9678 2.0511
v  -2.3408 1.9678 -1.8850
v  1.5831 1.9678 2.0551
v  1.5831 -1.9678 2.1427
v  1.5847 -1.9678 0.5122
v  0.7361 -1.9678 -1.7943
v  0.9076 -1.9678 -0.5084
v  1.5847 1.9678 0.3589
v  0.9076 1.9678 -0.5763
v  0.7361 1.9678 -1.8817
v  1.6861 -0.6981 -0.8211
v  1.5147 -0.7259 -2.1136
v  1.5147 0.5858 -2.1427
v  1.6861 0.6139 -0.8437
v  2.3632 0.6322 0.1201
v  2.3632 -0.6793 0.1712
v  1.5847 -0.6550 0.4611
v  1.5847 0.6565 0.4100
v  0.7361 0.6101 -1.8526
v  0.7361 -0.7016 -1.8235
v  0.9076 -0.6738 -0.5310
v  0.9076 0.6383 -0.5536
# 24 vertices

vn -1.0000 0.0047 -0.0009
vn -0.0011 0.0222 0.9998
vn -0.0010 0.0222 0.9998
vn 0.0000 -1.0000 -0.0000
vn 0.0000 1.0000 -0.0000
vn 0.9914 -0.0026 -0.1311
vn 0.9913 -0.0029 -0.1314
vn 0.9914 -0.0023 -0.1308
vn 0.8220 -0.0156 -0.5693
vn 0.8260 -0.0219 -0.5633
vn 0.8224 -0.0163 -0.5686
vn 0.8183 -0.0099 -0.5747
vn 1.0000 0.0000 0.0010
vn 1.0000 0.0000 0.0009
vn 0.0009 -0.0221 -0.9998
vn 0.0011 -0.0214 -0.9998
vn 0.0009 -0.0219 -0.9998
vn 0.0003 -0.0228 -0.9997
vn 0.0006 -0.0225 -0.9997
vn 0.0010 -0.0222 -0.9998
vn 0.9913 -0.0027 -0.1318
vn 0.9912 -0.0023 -0.1322
vn 0.9913 -0.0030 -0.1315
vn 0.9914 -0.0025 -0.1306
vn 0.9915 -0.0028 -0.1303
vn 0.9914 -0.0025 -0.1305
vn 0.9914 -0.0022 -0.1309
vn 0.8295 -0.0155 -0.5583
vn 0.8331 -0.0215 -0.5527
vn 0.8298 -0.0160 -0.5578
vn 0.8260 -0.0098 -0.5636
vn 0.8145 -0.0167 -0.5800
vn 0.8099 -0.0100 -0.5864
vn 0.8138 -0.0157 -0.5809
vn 0.8182 -0.0224 -0.5745
vn -0.3496 -0.0208 -0.9367
vn 0.0221 0.9995 -0.0246
vn 0.0192 0.9993 -0.0324
vn 0.3498 0.0365 0.9361
vn -0.0192 -0.9993 0.0321
vn -0.0221 -0.9995 0.0244
# 41 vertex normals

vt 0.7356 0.4990 0.0000
vt 0.8149 0.4974 0.0000
vt 0.8132 0.5767 0.0000
vt 0.7339 0.5783 0.0000
vt 0.4156 0.3355 0.0000
vt 0.4952 0.3355 0.0000
vt 0.4956 0.4153 0.0000
vt 0.4156 0.4153 0.0000
vt 0.7801 0.4208 0.0000
vt 0.8129 0.4208 0.0000
vt 0.7336 0.4380 0.0000
vt 0.7595 0.4345 0.0000
vt 0.8111 0.6588 0.0000
vt 0.7770 0.6588 0.0000
vt 0.7581 0.6451 0.0000
vt 0.7318 0.6416 0.0000
vt 0.5735 0.0278 0.0000
vt 0.6003 0.0294 0.0000
vt 0.5999 0.0551 0.0000
vt 0.5730 0.0559 0.0000
vt 0.5501 0.0529 0.0000
vt 0.5501 0.0272 0.0000
vt 0.3826 0.4146 0.0000
vt 0.3821 0.3880 0.0000
vt 0.3817 0.3614 0.0000
vt 0.3813 0.3348 0.0000
vt 0.6699 0.5801 0.0000
vt 0.6703 0.5527 0.0000
vt 0.6708 0.5263 0.0000
vt 0.6712 0.5008 0.0000
vt 0.3578 0.3880 0.0000
vt 0.3578 0.4142 0.0000
vt 0.3315 0.4137 0.0000
vt 0.3314 0.3880 0.0000
vt 0.3313 0.3615 0.0000
vt 0.3312 0.3339 0.0000
vt 0.3579 0.3344 0.0000
vt 0.3578 0.3614 0.0000
vt 0.6184 0.0282 0.0000
vt 0.6181 0.0547 0.0000
vt 0.5993 0.0696 0.0000
vt 0.5741 0.0720 0.0000
vt 0.5518 0.0687 0.0000
vt 0.5333 0.0270 0.0000
vt 0.5333 0.0535 0.0000
vt 0.5522 0.0114 0.0000
vt 0.5752 0.0091 0.0000
vt 0.6001 0.0121 0.0000
# 48 texture coords

g Object003
s 4
f 1/1/1 2/2/1 3/3/1 4/4/1 
s 32
f 5/5/2 3/6/3 2/7/2 6/8/2 
s off
f 7/9/4 6/10/4 2/2/4 1/1/4 
f 1/1/4 8/11/4 9/12/4 
f 1/1/4 9/12/4 7/9/4 
f 3/3/5 5/13/5 10/14/5 4/4/5 
f 11/15/5 12/16/5 4/4/5 
f 10/14/5 11/15/5 4/4/5 
s 1
f 13/17/6 14/18/7 15/19/6 16/20/8 
s 2
f 17/21/9 18/22/10 13/17/11 16/20/12 
s 1
f 5/5/13 6/8/13 7/23/13 19/24/14 20/25/14 10/26/14 
s 2
f 4/4/15 12/27/16 21/28/17 22/29/18 8/30/19 1/1/20 
s 1
f 23/31/21 9/32/22 8/33/21 22/34/23 
f 21/35/24 12/36/25 11/37/26 24/38/27 
s 2
f 19/24/28 7/23/29 9/32/30 23/31/31 
f 24/38/32 11/37/33 10/26/34 20/25/35 
s off
f 22/39/36 21/40/36 15/19/36 14/18/36 
f 21/41/37 24/42/37 16/20/37 15/19/37 
f 20/43/38 17/21/38 16/20/38 24/42/38 
f 19/44/39 18/22/39 17/21/39 20/45/39 
f 19/46/40 23/47/40 13/17/40 18/22/40 
f 22/48/41 14/18/41 13/17/41 23/47/41 
# 18 polygons - 4 triangles

